<svg width="111" height="111" viewBox="0 0 111 111" fill="none" xmlns="http://www.w3.org/2000/svg">
<path d="M106.863 83.0751L109.927 89.2493C110.774 90.9542 110.077 93.0223 108.373 93.8687L94.271 100.952C90.814 102.669 86.6121 101.21 84.9679 97.7095L71.4454 68.9297H41.3578C37.9275 68.9297 35.0193 66.4073 34.534 63.0114C27.2343 11.9136 27.6537 15.0878 27.5719 13.7859C27.5719 5.95422 34.1025 -0.352196 42.0152 0.015285C49.182 0.348086 54.9499 6.24157 55.1388 13.4137C55.3258 20.5076 50.1517 26.4291 43.3759 27.4234L44.3819 34.465H72.3762C74.2797 34.465 75.8226 36.008 75.8226 37.9115V44.8045C75.8226 46.708 74.2797 48.251 72.3762 48.251H46.3513L47.3362 55.144H75.8226C77.1313 55.144 78.413 55.5165 79.5177 56.2181C80.6225 56.9197 81.5047 57.9212 82.0612 59.1057L94.4502 85.4728L102.243 81.5203C103.948 80.674 106.016 81.3702 106.863 83.0751ZM67.0681 75.8226H61.7894C60.1119 87.4985 50.0438 96.5015 37.9113 96.5015C24.6085 96.5015 13.7859 85.6789 13.7859 72.3762C13.7859 63.4358 18.6743 55.6157 25.9184 51.4482C25.1188 45.8552 24.4442 41.1389 23.8747 37.1598C9.89916 42.7502 0 56.4282 0 72.3762C0 93.2806 17.0069 110.287 37.9113 110.287C53.3925 110.287 66.7338 100.959 72.6153 87.6286L67.0681 75.8226Z" fill="#6F48A0"/>
</svg>
